<svg width="22" height="22" viewBox="0 0 22 22" fill="none" xmlns="http://www.w3.org/2000/svg">
<path d="M13.1541 1.8335H8.84578C7.89245 1.8335 7.11328 2.6035 7.11328 3.55683V4.4185C7.11328 5.37183 7.88328 6.14183 8.83661 6.14183H13.1541C14.1074 6.14183 14.8774 5.37183 14.8774 4.4185V3.55683C14.8866 2.6035 14.1074 1.8335 13.1541 1.8335Z" fill="#7D7D7D"/>
<path d="M15.8031 4.41819C15.8031 5.87569 14.6115 7.06736 13.154 7.06736H8.84562C7.38812 7.06736 6.19646 5.87569 6.19646 4.41819C6.19646 3.90486 5.64646 3.58403 5.18812 3.82236C3.89562 4.50986 3.01562 5.87569 3.01562 7.44319V16.069C3.01562 18.324 4.85813 20.1665 7.11313 20.1665H14.8865C17.1415 20.1665 18.984 18.324 18.984 16.069V7.44319C18.984 5.87569 18.104 4.50986 16.8115 3.82236C16.3531 3.58403 15.8031 3.90486 15.8031 4.41819ZM11.3481 15.5374H7.33313C6.95729 15.5374 6.64563 15.2257 6.64563 14.8499C6.64563 14.474 6.95729 14.1624 7.33313 14.1624H11.3481C11.724 14.1624 12.0356 14.474 12.0356 14.8499C12.0356 15.2257 11.724 15.5374 11.3481 15.5374ZM13.7498 11.8707H7.33313C6.95729 11.8707 6.64563 11.559 6.64563 11.1832C6.64563 10.8074 6.95729 10.4957 7.33313 10.4957H13.7498C14.1256 10.4957 14.4373 10.8074 14.4373 11.1832C14.4373 11.559 14.1256 11.8707 13.7498 11.8707Z" fill="#7D7D7D"/>
</svg>
