<svg width="14" height="14" viewBox="0 0 14 14" fill="none" xmlns="http://www.w3.org/2000/svg">
<path d="M6.5625 4.71289V6.38122L5.97333 6.17706C5.67583 6.07206 5.495 5.97289 5.495 5.46539C5.495 5.05122 5.80416 4.71289 6.18333 4.71289H6.5625Z" fill="#1CB5B2"/>
<path d="M8.505 8.534C8.505 8.94816 8.19583 9.2865 7.81667 9.2865H7.4375V7.61816L8.02667 7.82233C8.32417 7.92733 8.505 8.0265 8.505 8.534Z" fill="#1CB5B2"/>
<path d="M9.44417 1.16699H4.55584C2.4325 1.16699 1.16667 2.43283 1.16667 4.55616V9.44449C1.16667 11.5678 2.4325 12.8337 4.55584 12.8337H9.44417C11.5675 12.8337 12.8333 11.5678 12.8333 9.44449V4.55616C12.8333 2.43283 11.5675 1.16699 9.44417 1.16699ZM8.31834 7.00033C8.77334 7.15783 9.38 7.49033 9.38 8.53449C9.38 9.43283 8.68 10.162 7.81667 10.162H7.4375V10.5003C7.4375 10.7395 7.23917 10.9378 7 10.9378C6.76084 10.9378 6.5625 10.7395 6.5625 10.5003V10.162H6.35251C5.39584 10.162 4.62001 9.35116 4.62001 8.35949C4.62001 8.12033 4.81251 7.92199 5.0575 7.92199C5.29667 7.92199 5.49501 8.12033 5.49501 8.35949C5.49501 8.87283 5.88001 9.28699 6.35251 9.28699H6.5625V7.30949L5.68167 7.00033C5.22667 6.84283 4.62001 6.51033 4.62001 5.46616C4.62001 4.56783 5.32 3.83866 6.18334 3.83866H6.5625V3.50033C6.5625 3.26116 6.76084 3.06283 7 3.06283C7.23917 3.06283 7.4375 3.26116 7.4375 3.50033V3.83866H7.6475C8.60417 3.83866 9.38 4.64949 9.38 5.64116C9.38 5.88033 9.1875 6.07866 8.9425 6.07866C8.70334 6.07866 8.505 5.88033 8.505 5.64116C8.505 5.12783 8.12 4.71366 7.6475 4.71366H7.4375V6.69116L8.31834 7.00033Z" fill="#1CB5B2"/>
</svg>
