<svg width="22" height="22" viewBox="0 0 22 22" fill="none" xmlns="http://www.w3.org/2000/svg">
<path d="M15.5834 3.20825H6.41671C3.66671 3.20825 1.83337 4.58325 1.83337 7.79158V14.2083C1.83337 17.4166 3.66671 18.7916 6.41671 18.7916H15.5834C18.3334 18.7916 20.1667 17.4166 20.1667 14.2083V7.79158C20.1667 4.58325 18.3334 3.20825 15.5834 3.20825ZM16.0142 8.79075L13.145 11.0824C12.54 11.5683 11.77 11.8066 11 11.8066C10.23 11.8066 9.45087 11.5683 8.85504 11.0824L5.98587 8.79075C5.69254 8.55242 5.64671 8.11242 5.87587 7.81908C6.11421 7.52575 6.54504 7.47075 6.83837 7.70908L9.70754 10.0008C10.4042 10.5599 11.5867 10.5599 12.2834 10.0008L15.1525 7.70908C15.4459 7.47075 15.8859 7.51658 16.115 7.81908C16.3534 8.11242 16.3075 8.55242 16.0142 8.79075Z" fill="#7D7D7D"/>
</svg>
