<svg width="21" height="20" viewBox="0 0 21 20" fill="none" xmlns="http://www.w3.org/2000/svg">
<path d="M14.6666 2.91699H6.33329C3.83329 2.91699 2.16663 4.16699 2.16663 7.08366V12.917C2.16663 15.8337 3.83329 17.0837 6.33329 17.0837H14.6666C17.1666 17.0837 18.8333 15.8337 18.8333 12.917V7.08366C18.8333 4.16699 17.1666 2.91699 14.6666 2.91699ZM5.70829 12.0837C5.70829 12.4253 5.42496 12.7087 5.08329 12.7087C4.74163 12.7087 4.45829 12.4253 4.45829 12.0837V7.91699C4.45829 7.57533 4.74163 7.29199 5.08329 7.29199C5.42496 7.29199 5.70829 7.57533 5.70829 7.91699V12.0837ZM10.5 12.5003C9.11663 12.5003 7.99996 11.3837 7.99996 10.0003C7.99996 8.61699 9.11663 7.50033 10.5 7.50033C11.8833 7.50033 13 8.61699 13 10.0003C13 11.3837 11.8833 12.5003 10.5 12.5003ZM16.5416 12.0837C16.5416 12.4253 16.2583 12.7087 15.9166 12.7087C15.575 12.7087 15.2916 12.4253 15.2916 12.0837V7.91699C15.2916 7.57533 15.575 7.29199 15.9166 7.29199C16.2583 7.29199 16.5416 7.57533 16.5416 7.91699V12.0837Z" fill="#1CB5B2"/>
</svg>
