<svg width="20" height="20" viewBox="0 0 20 20" fill="none" xmlns="http://www.w3.org/2000/svg">
<path d="M14.1665 2.91699H5.83317C3.33317 2.91699 1.6665 4.16699 1.6665 7.08366V12.917C1.6665 15.8337 3.33317 17.0837 5.83317 17.0837H14.1665C16.6665 17.0837 18.3332 15.8337 18.3332 12.917V7.08366C18.3332 4.16699 16.6665 2.91699 14.1665 2.91699ZM5.20817 12.0837C5.20817 12.4253 4.92484 12.7087 4.58317 12.7087C4.2415 12.7087 3.95817 12.4253 3.95817 12.0837V7.91699C3.95817 7.57533 4.2415 7.29199 4.58317 7.29199C4.92484 7.29199 5.20817 7.57533 5.20817 7.91699V12.0837ZM9.99984 12.5003C8.6165 12.5003 7.49984 11.3837 7.49984 10.0003C7.49984 8.61699 8.6165 7.50033 9.99984 7.50033C11.3832 7.50033 12.4998 8.61699 12.4998 10.0003C12.4998 11.3837 11.3832 12.5003 9.99984 12.5003ZM16.0415 12.0837C16.0415 12.4253 15.7582 12.7087 15.4165 12.7087C15.0748 12.7087 14.7915 12.4253 14.7915 12.0837V7.91699C14.7915 7.57533 15.0748 7.29199 15.4165 7.29199C15.7582 7.29199 16.0415 7.57533 16.0415 7.91699V12.0837Z" fill="#112B91"/>
</svg>
