<svg width="150" height="150" viewBox="0 0 150 150" fill="none" xmlns="http://www.w3.org/2000/svg">
<g clip-path="url(#clip0_1234_4000)">
<path d="M76.8214 147.48C92.1334 147.48 106.833 141.39 117.66 130.563C128.486 119.736 134.575 105.036 134.575 89.724C134.575 74.413 128.486 59.713 117.659 48.886C106.832 38.059 92.1314 31.97 76.8204 31.97C61.5084 31.97 46.8084 38.059 35.9814 48.886C25.1544 59.713 19.0654 74.413 19.0654 89.725C19.0774 105.033 25.1704 119.727 35.9954 130.551C46.8194 141.376 61.5134 147.468 76.8214 147.48Z" fill="#EAEEF9"/>
<path d="M40.4797 73.937H110.292C111.602 73.959 112.854 74.49 113.781 75.417C114.707 76.344 115.238 77.596 115.259 78.906V122.965C115.237 124.275 114.707 125.527 113.78 126.453C112.854 127.38 111.602 127.91 110.292 127.932H40.4797C39.1697 127.91 37.9177 127.38 36.9917 126.453C36.0647 125.527 35.5347 124.275 35.5127 122.965V78.906C35.5337 77.596 36.0647 76.344 36.9907 75.417C37.9177 74.49 39.1697 73.959 40.4797 73.937Z" fill="white"/>
<path d="M144.003 75.2871C144.734 74.6121 145.214 73.7081 145.364 72.7241C145.514 71.7411 145.326 70.7351 144.83 69.8731C144.333 69.0101 143.559 68.3411 142.633 67.9771C141.708 67.6121 140.685 67.5721 139.734 67.8641C138.783 68.1571 137.959 68.7631 137.397 69.5851C136.836 70.4061 136.571 71.3951 136.644 72.3871C136.718 73.3791 137.127 74.3171 137.803 75.0471C138.604 75.8821 139.698 76.3751 140.855 76.4191C142.011 76.4641 143.14 76.0581 144.003 75.2871Z" fill="#EAEEF9"/>
<path d="M144.242 55.597C144.606 55.265 144.823 54.801 144.846 54.309C144.868 53.817 144.694 53.336 144.362 52.972C144.03 52.608 143.566 52.391 143.074 52.369C142.582 52.346 142.101 52.52 141.737 52.852C141.373 53.184 141.156 53.648 141.133 54.14C141.111 54.632 141.285 55.113 141.617 55.477C141.828 55.732 142.106 55.923 142.42 56.028C142.733 56.133 143.07 56.148 143.392 56.072C143.714 55.996 144.009 55.831 144.242 55.597Z" fill="#EAEEF9"/>
<path d="M97.3504 28.5101C97.5664 28.3211 97.7124 28.0641 97.7644 27.7811C97.8154 27.4981 97.7694 27.2061 97.6324 26.9531C97.4964 26.7001 97.2784 26.5001 97.0134 26.3871C96.7494 26.2741 96.4544 26.2551 96.1774 26.3311C95.9004 26.4081 95.6574 26.5761 95.4884 26.8091C95.3194 27.0421 95.2344 27.3251 95.2474 27.6121C95.2604 27.8991 95.3714 28.1741 95.5604 28.3901C95.7864 28.6351 96.0984 28.7841 96.4314 28.8061C96.7644 28.8291 97.0934 28.7231 97.3504 28.5101Z" fill="#EAEEF9"/>
<path d="M140.626 50.666L123.238 81.651C123.062 81.98 122.799 82.255 122.479 82.446C122.158 82.637 121.792 82.737 121.418 82.735C121.045 82.733 120.68 82.629 120.361 82.435L90.5538 65.047C90.2248 64.871 89.9497 64.609 89.7587 64.288C89.5677 63.968 89.4678 63.601 89.4698 63.228C89.4708 62.855 89.5748 62.49 89.7688 62.171L112.647 22.688C112.823 22.359 113.086 22.084 113.406 21.893C113.727 21.702 114.093 21.602 114.466 21.604C114.84 21.606 115.205 21.709 115.524 21.903L137.095 34.454L140.626 50.666Z" fill="#F2F6FA"/>
<path d="M137.096 34.4541L132.129 42.8211C131.809 43.3951 131.726 44.0721 131.897 44.7071C132.067 45.3411 132.479 45.8851 133.044 46.2211L140.496 50.5351" fill="#D5DAE6"/>
<path d="M28.8448 37.2001L48.7178 57.9861C48.9338 58.2101 49.0848 58.4901 49.1528 58.7941C49.2218 59.0981 49.2048 59.4161 49.1048 59.7111C49.0048 60.0061 48.8258 60.2691 48.5868 60.4691L28.3218 79.6861C28.0978 79.9031 27.8178 80.0541 27.5128 80.1221C27.2088 80.1901 26.8918 80.1731 26.5958 80.0731C26.3008 79.9741 26.0378 79.7941 25.8378 79.5551L0.474763 52.7551C0.258763 52.5311 0.107763 52.2511 0.039763 51.9471C-0.029237 51.6431 -0.012237 51.3251 0.087763 51.0301C0.187763 50.7351 0.366763 50.4721 0.605763 50.2721L15.3798 36.4131L28.8448 37.2001Z" fill="#F2F6FA"/>
<path d="M15.248 36.1531L20.739 41.9061C21.123 42.2831 21.64 42.4941 22.177 42.4941C22.715 42.4941 23.232 42.2831 23.616 41.9061L28.716 37.0691" fill="#D5DAE6"/>
<path d="M80.7487 69.884L73.0347 97.47C72.9527 97.775 72.7887 98.051 72.5597 98.269C72.3317 98.486 72.0477 98.637 71.7387 98.703C71.4307 98.77 71.1097 98.751 70.8117 98.647L44.0117 90.803C43.7067 90.721 43.4307 90.557 43.2127 90.329C42.9947 90.1 42.8447 89.816 42.7777 89.507C42.7117 89.199 42.7307 88.878 42.8347 88.58L53.2927 53.019C53.3747 52.714 53.5387 52.438 53.7677 52.22C53.9957 52.003 54.2797 51.852 54.5887 51.786C54.8967 51.719 55.2177 51.738 55.5157 51.842L74.9967 57.595L80.7487 69.884Z" fill="#F2F6FA"/>
<path d="M74.9994 57.6431L72.5124 65.4431C72.3894 65.9621 72.4694 66.5091 72.7374 66.9711C73.0044 67.4331 73.4384 67.7751 73.9504 67.9271L80.8454 69.8751" fill="#D5DAE6"/>
<path d="M143.759 117.08L118.396 130.807C117.98 131.014 117.499 131.047 117.058 130.9C116.617 130.753 116.252 130.438 116.043 130.023L103.362 105.314C103.155 104.898 103.121 104.416 103.268 103.976C103.415 103.535 103.731 103.17 104.146 102.961L137.092 85.5719C137.508 85.3659 137.99 85.3329 138.43 85.4799C138.871 85.6269 139.236 85.9419 139.445 86.3569L148.597 104.267L143.759 117.08Z" fill="#F2F6FA"/>
<path d="M120.04 113.326L120.06 113.075C120.249 110.854 120.674 108.66 121.326 106.529C121.819 105.033 122.636 103.663 123.719 102.518C124.771 101.452 126.166 100.788 127.657 100.645C128.393 100.577 129.136 100.673 129.831 100.926C130.526 101.178 131.157 101.581 131.678 102.106C131.858 102.28 132.02 102.472 132.162 102.679L132.207 102.768C132.343 102.959 132.464 103.16 132.57 103.369L132.611 103.45C132.83 103.915 132.979 104.409 133.053 104.918L133.075 104.962C133.076 104.992 133.073 105.021 133.065 105.05C133.099 105.235 133.114 105.423 133.11 105.611L133.128 105.954C133.123 106.049 133.112 106.143 133.095 106.236C133.086 106.293 133.078 106.343 133.076 106.381L133.074 106.42C133.071 106.504 133.063 106.589 133.05 106.672C134.077 107.158 134.914 107.97 135.43 108.982L135.446 109.014C135.686 109.477 135.849 109.976 135.929 110.492C136.046 111.217 136.002 111.958 135.798 112.664C135.595 113.369 135.237 114.02 134.752 114.571C133.754 115.686 132.404 116.425 130.927 116.664C129.361 116.879 127.766 116.738 126.261 116.254C124.162 115.534 122.143 114.596 120.239 113.456L120.035 113.329L120.04 113.326ZM133.561 110.983C133.497 110.861 133.398 110.762 133.275 110.698C133.153 110.635 133.014 110.611 132.878 110.63C132.704 110.657 132.547 110.75 132.441 110.891C132.334 111.032 132.287 111.208 132.309 111.383C132.336 111.661 132.278 111.941 132.143 112.186C132.008 112.431 131.802 112.629 131.552 112.754L131.53 112.765C131.358 112.834 131.22 112.968 131.145 113.137C131.076 113.306 131.076 113.495 131.145 113.664C131.226 113.81 131.359 113.921 131.516 113.976C131.674 114.03 131.847 114.025 132.001 113.96L132.09 113.915C132.597 113.673 133.016 113.279 133.29 112.789C133.565 112.3 133.682 111.737 133.624 111.178C133.614 111.11 133.592 111.044 133.561 110.982V110.983Z" fill="#D5DAE6" fill-opacity="0.24"/>
<path d="M148.471 104.529L141.411 108.19C140.967 108.474 140.634 108.901 140.467 109.401C140.301 109.901 140.311 110.443 140.496 110.936L143.634 117.211" fill="#D5DAE6"/>
<path d="M116.57 102.307V124.007C116.546 125.352 116.001 126.636 115.05 127.587C114.099 128.538 112.815 129.083 111.47 129.107H39.6957C38.3507 129.084 37.0667 128.538 36.1157 127.587C35.1647 126.636 34.6187 125.352 34.5957 124.007V100.477" stroke="#1676EE" stroke-width="3" stroke-linecap="round" stroke-linejoin="round"/>
<path d="M113.824 88.318H89.2458C86.8568 88.299 84.5378 89.134 82.7088 90.671L76.1718 95.9C74.3118 97.383 72.0138 98.211 69.6358 98.254H41.6568C40.3048 98.255 39.0078 98.793 38.0518 99.749C37.0958 100.705 36.5578 102.002 36.5568 103.354C36.5358 103.622 36.5808 103.892 36.6878 104.139L41.7878 130.939C41.9878 132.157 42.6068 133.269 43.5378 134.08C44.4678 134.891 45.6538 135.352 46.8878 135.384H106.636C107.863 135.402 109.056 134.974 109.993 134.182C110.931 133.389 111.55 132.283 111.736 131.07L118.927 94.202C119.062 93.317 118.96 92.412 118.629 91.58C118.298 90.749 117.752 90.02 117.046 89.47C116.34 88.919 115.5 88.567 114.613 88.449C114.365 88.342 114.094 88.297 113.824 88.318Z" fill="white"/>
<path d="M120.625 83.48H91.3384C88.5344 83.513 85.8194 84.479 83.6254 86.226L75.7814 92.632C73.6074 94.415 70.8794 95.386 68.0674 95.378H34.4674C33.3884 95.377 32.3284 95.66 31.3934 96.199C30.4584 96.738 29.6824 97.514 29.1434 98.448C28.6044 99.383 28.3214 100.443 28.3224 101.522C28.3014 101.833 28.3464 102.145 28.4534 102.437L34.5984 134.992C34.8224 136.468 35.5634 137.817 36.6884 138.798C37.8124 139.779 39.2504 140.33 40.7424 140.352H111.995C113.469 140.337 114.892 139.806 116.014 138.85C117.137 137.895 117.889 136.576 118.14 135.123L126.64 90.541C126.894 88.93 126.5 87.282 125.545 85.96C124.59 84.638 123.149 83.746 121.54 83.481L120.625 83.48Z" fill="white"/>
<path d="M64.1449 117.734C64.9769 117.734 65.7749 117.403 66.3629 116.814C66.9519 116.226 67.2819 115.427 67.2819 114.595C67.2819 113.763 66.9509 112.965 66.3629 112.377C65.7739 111.789 64.9759 111.458 64.1439 111.458C63.3119 111.458 62.5129 111.789 61.9249 112.377C61.3369 112.965 61.0059 113.764 61.0059 114.596C61.0169 115.425 61.3519 116.217 61.9379 116.803C62.5239 117.389 63.3159 117.723 64.1449 117.734Z" fill="#1CB5B2"/>
<path d="M88.5872 117.212C89.4192 117.212 90.2182 116.881 90.8062 116.293C91.3942 115.705 91.7252 114.906 91.7252 114.074C91.7252 113.242 91.3942 112.443 90.8062 111.855C90.2182 111.267 89.4192 110.936 88.5872 110.936C87.7552 110.936 86.9562 111.267 86.3682 111.855C85.7802 112.443 85.4492 113.242 85.4492 114.074C85.4602 114.902 85.7952 115.694 86.3812 116.28C86.9672 116.866 87.7592 117.201 88.5872 117.212Z" fill="#1CB5B2"/>
<path d="M82.9701 122.441H81.2701C80.8291 121.529 80.1491 120.754 79.3031 120.198C78.4561 119.642 77.4751 119.326 76.4631 119.283C75.4511 119.241 74.4461 119.474 73.5561 119.957C72.4601 120.464 71.5791 121.345 71.0721 122.441H69.3721C70.0551 120.627 71.4291 119.155 73.1911 118.347C74.9531 117.54 76.9651 117.46 78.7851 118.127C79.7411 118.521 80.6061 119.107 81.3261 119.849C82.0461 120.591 82.6051 121.474 82.9701 122.441Z" fill="#1CB5B2"/>
<path d="M56.4307 109.237L63.4897 105.446" stroke="#989FB0" stroke-width="1.5"/>
<path d="M94.7368 107.407L87.6768 103.484" stroke="#989FB0" stroke-width="1.5"/>
<path d="M32.2587 63.9061L31.9597 63.9661C29.3117 64.4881 26.6157 64.7281 23.9167 64.6821C22.0067 64.6051 20.1377 64.1071 18.4427 63.2251C16.8517 62.3561 15.6147 60.9561 14.9497 59.2701C14.6257 58.4351 14.4887 57.5391 14.5507 56.6451C14.6137 55.7511 14.8717 54.8821 15.3087 54.1001C15.4517 53.8301 15.6217 53.5761 15.8167 53.3411L15.9047 53.2591C16.0807 53.0401 16.2717 52.8341 16.4777 52.6431L16.5577 52.5681C17.0257 52.1561 17.5527 51.8171 18.1217 51.5611L18.1647 51.5211C18.1987 51.5091 18.2357 51.5041 18.2717 51.5041C18.4757 51.4031 18.6897 51.3231 18.9107 51.2651L19.3037 51.1291C19.4147 51.1031 19.5277 51.0851 19.6417 51.0741C19.7117 51.0661 19.7717 51.0581 19.8157 51.0481L19.8617 51.0381C19.9617 51.0131 20.0627 50.9941 20.1647 50.9811C20.3867 49.6221 21.0547 48.3741 22.0617 47.4351L22.0937 47.4051C22.5527 46.9711 23.0797 46.6141 23.6527 46.3491C24.4577 45.9711 25.3367 45.7751 26.2267 45.7771C27.1157 45.7791 27.9947 45.9781 28.7977 46.3601C30.4257 47.1491 31.7357 48.4731 32.5067 50.1101C33.2797 51.8621 33.6487 53.7661 33.5867 55.6801C33.4487 58.3651 33.0307 61.0281 32.3387 63.6261L32.2577 63.9061H32.2587ZM25.0157 48.9441C24.8947 49.0591 24.8127 49.2081 24.7797 49.3721C24.7467 49.5351 24.7657 49.7051 24.8327 49.8571C24.9217 50.0511 25.0837 50.2031 25.2827 50.2801C25.4817 50.3571 25.7037 50.3531 25.8997 50.2691C26.2147 50.1431 26.5607 50.1161 26.8907 50.1901C27.2217 50.2651 27.5227 50.4381 27.7527 50.6871L27.7727 50.7091C27.9107 50.8861 28.1127 51.0031 28.3347 51.0331C28.5547 51.0571 28.7757 50.9941 28.9497 50.8561C29.0927 50.7131 29.1777 50.5221 29.1877 50.3201C29.1987 50.1181 29.1347 49.9191 29.0087 49.7611L28.9277 49.6741C28.4767 49.1651 27.8787 48.8081 27.2167 48.6521C26.5547 48.4951 25.8597 48.5471 25.2287 48.8011C25.1497 48.8361 25.0777 48.8841 25.0147 48.9431L25.0157 48.9441Z" fill="#D5DAE6"/>
<path d="M59.9458 83.5839L59.7768 83.4039C58.2778 81.8069 56.9528 80.0549 55.8238 78.1779C55.0538 76.8289 54.5918 75.3269 54.4698 73.7789C54.3838 72.3119 54.8148 70.8599 55.6878 69.6769C56.1228 69.0939 56.6808 68.6149 57.3218 68.2729C57.9638 67.9309 58.6728 67.7339 59.3988 67.6979C59.6458 67.6799 59.8938 67.6879 60.1398 67.7199L60.2368 67.7459C60.4628 67.7729 60.6858 67.8159 60.9058 67.8749L60.9918 67.8979C61.4768 68.0429 61.9378 68.2599 62.3588 68.5409L62.4048 68.5529C62.4278 68.5709 62.4468 68.5929 62.4628 68.6179C62.6198 68.7149 62.7668 68.8279 62.9018 68.9549L63.1638 69.1669C63.2298 69.2329 63.2908 69.3029 63.3478 69.3769C63.3838 69.4219 63.4148 69.4599 63.4408 69.4869L63.4678 69.5139C63.5278 69.5719 63.5838 69.6329 63.6358 69.6979C64.6668 69.2659 65.8138 69.1879 66.8938 69.4769L66.9288 69.4859C67.4248 69.6149 67.8978 69.8239 68.3268 70.1039C68.9328 70.4959 69.4448 71.0169 69.8258 71.6299C70.2058 72.2429 70.4468 72.9329 70.5288 73.6499C70.6858 75.1109 70.3378 76.5819 69.5428 77.8169C68.6698 79.1009 67.5188 80.1729 66.1758 80.9529C64.2698 82.0139 62.2578 82.8739 60.1738 83.5169L59.9488 83.5829L59.9458 83.5839ZM67.1268 72.1589C66.9958 72.1249 66.8578 72.1329 66.7308 72.1799C66.6048 72.2279 66.4958 72.3129 66.4198 72.4249C66.3248 72.5699 66.2898 72.7459 66.3218 72.9159C66.3548 73.0859 66.4528 73.2369 66.5948 73.3359C66.8168 73.4989 66.9848 73.7249 67.0758 73.9849C67.1668 74.2449 67.1768 74.5259 67.1048 74.7919L67.0988 74.8159C67.0378 74.9859 67.0448 75.1739 67.1188 75.3389C67.1968 75.5009 67.3358 75.6249 67.5048 75.6849C67.6648 75.7219 67.8328 75.6979 67.9768 75.6189C68.1198 75.5389 68.2298 75.4099 68.2838 75.2549L68.3098 75.1579C68.4658 74.6279 68.4538 74.0629 68.2768 73.5409C68.0998 73.0179 67.7648 72.5619 67.3188 72.2369C67.2598 72.1999 67.1958 72.1739 67.1278 72.1579L67.1268 72.1589Z" fill="#D5DAE6" fill-opacity="0.69"/>
<path d="M111.075 63.954L110.903 63.645C109.369 60.895 108.131 57.991 107.21 54.98C106.606 52.833 106.484 50.579 106.852 48.379C107.243 46.302 108.352 44.426 109.983 43.081C110.793 42.42 111.738 41.946 112.752 41.692C113.766 41.439 114.824 41.413 115.849 41.615C116.2 41.677 116.543 41.774 116.874 41.905L116.996 41.973C117.302 42.088 117.6 42.226 117.886 42.385L117.998 42.447C118.624 42.819 119.192 43.282 119.681 43.821L119.741 43.854C119.765 43.887 119.783 43.924 119.795 43.963C119.981 44.152 120.148 44.359 120.292 44.582L120.582 44.972C120.651 45.086 120.712 45.205 120.766 45.327C120.801 45.401 120.831 45.466 120.857 45.512L120.885 45.56C120.948 45.661 121.004 45.766 121.054 45.874C122.645 45.631 124.273 45.923 125.68 46.705L125.725 46.73C126.372 47.083 126.958 47.538 127.459 48.079C128.169 48.835 128.703 49.74 129.022 50.727C129.34 51.714 129.437 52.76 129.303 53.789C129.014 55.88 128.017 57.811 126.478 59.256C124.813 60.745 122.834 61.841 120.688 62.462C117.66 63.278 114.555 63.775 111.423 63.946L111.084 63.958L111.075 63.954ZM125.071 50.526C124.9 50.433 124.705 50.396 124.512 50.418C124.318 50.441 124.137 50.522 123.992 50.652C123.809 50.821 123.699 51.055 123.685 51.303C123.672 51.552 123.756 51.796 123.92 51.984C124.173 52.288 124.328 52.662 124.365 53.055C124.401 53.449 124.317 53.845 124.124 54.19L124.107 54.221C123.96 54.438 123.904 54.704 123.951 54.961C124.003 55.214 124.154 55.436 124.369 55.579C124.579 55.686 124.822 55.711 125.05 55.65C125.278 55.59 125.475 55.447 125.605 55.25L125.671 55.131C126.073 54.447 126.254 53.655 126.189 52.864C126.124 52.073 125.816 51.321 125.307 50.712C125.239 50.637 125.16 50.575 125.072 50.526H125.071Z" fill="#D5DAE6" fill-opacity="0.46"/>
</g>
<defs>
<clipPath id="clip0_1234_4000">
<rect width="150" height="150" fill="white"/>
</clipPath>
</defs>
</svg>
