<svg width="100" height="100" viewBox="0 0 100 100" fill="none" xmlns="http://www.w3.org/2000/svg">
<path d="M49.4562 98.1185C60.4102 98.1405 71.0532 94.4385 79.6292 87.6231C88.2052 80.8078 94.2152 71.2758 96.6678 60.5998C99.1205 49.9238 97.8732 38.7251 93.1318 28.8505C88.3898 18.9758 80.4298 10.9998 70.5645 6.23846C60.6988 1.47713 49.5028 0.207801 38.8215 2.63913C28.1408 5.07047 18.5975 11.0618 11.7648 19.6238C4.93286 28.1865 1.20953 38.8218 1.20953 49.7758C1.1962 58.2538 3.41687 66.5878 7.64751 73.9358C11.8775 81.2831 17.9702 87.3878 25.3095 91.6325C32.6482 95.8778 40.9782 98.1151 49.4562 98.1185Z" fill="#EAEEF9"/>
<path d="M85.6867 99.3334C86.7207 99.3334 87.714 98.9221 88.4447 98.1908C89.176 97.4588 89.5873 96.4661 89.5873 95.4321C89.5873 94.3974 89.176 93.4048 88.4447 92.6734C87.7133 91.9421 86.7207 91.5308 85.686 91.5308C84.652 91.5308 83.6593 91.9421 82.9273 92.6734C82.196 93.4041 81.7847 94.3974 81.7847 95.4314C81.786 96.4654 82.198 97.4581 82.9293 98.1888C83.66 98.9201 84.6527 99.3321 85.6867 99.3334Z" fill="#EAEEF9"/>
<path d="M88.6852 12.578C89.3919 12.578 90.0712 12.2966 90.5706 11.7966C91.0706 11.2973 91.3519 10.618 91.3519 9.9113C91.3519 9.20463 91.0706 8.5253 90.5706 8.02596C90.0712 7.52596 89.3919 7.24463 88.6852 7.24463C87.9786 7.24463 87.2992 7.52596 86.7999 8.02596C86.2999 8.5253 86.0186 9.20463 86.0186 9.9113C86.0199 10.618 86.3019 11.2953 86.8012 11.7953C87.3012 12.2946 87.9786 12.5766 88.6852 12.578Z" fill="#43D477" fill-opacity="0.5"/>
<path d="M9.66618 7.93685C10.3728 7.93685 11.0522 7.65552 11.5515 7.15552C12.0515 6.65618 12.3328 5.97685 12.3328 5.27018C12.3328 4.56352 12.0515 3.88418 11.5515 3.38485C11.0522 2.88485 10.3728 2.60352 9.66618 2.60352C8.95951 2.60352 8.28018 2.88485 7.78085 3.38485C7.28085 3.88418 6.99951 4.56352 6.99951 5.27018C6.99951 5.97685 7.28085 6.65618 7.78085 7.15552C8.28018 7.65552 8.95951 7.93685 9.66618 7.93685Z" fill="#EAEEF9"/>
<path d="M66.0148 21.8364C82.4428 21.8364 95.6888 33.7791 95.6888 48.4724C95.6888 56.9131 91.3115 64.4724 84.4122 69.4058V80.4724C84.4162 80.9164 84.2528 81.3458 83.9548 81.6758C83.6575 82.0051 83.2468 82.2111 82.8048 82.2524C82.3622 82.2944 81.9208 82.1684 81.5668 81.8998L72.1455 74.5531C70.1568 74.9024 68.1428 75.0871 66.1235 75.1051C49.6962 75.1051 36.4448 63.1524 36.4448 48.4691C36.4448 33.7858 49.6968 21.8364 66.0148 21.8364Z" fill="#CBD4E0"/>
<path d="M36.9934 20.5234C18.7034 20.5234 3.91943 33.7794 3.91943 50.1094C3.91943 59.5401 8.84809 67.9808 16.5141 73.3481V85.6241C16.5008 86.1228 16.6808 86.6081 17.0168 86.9774C17.3528 87.3468 17.8188 87.5721 18.3168 87.6054C18.8148 87.6388 19.3068 87.4781 19.6894 87.1574L30.2028 79.0494C32.4021 79.4901 34.6401 79.7101 36.8834 79.7061C55.1734 79.7061 69.9575 66.4501 69.9575 50.1108C69.9575 33.7714 55.1728 20.5234 36.9934 20.5234Z" fill="white"/>
<path d="M26.2058 51.3173C27.0251 51.318 27.8205 51.04 28.4611 50.5293C29.1018 50.0193 29.5505 49.306 29.7331 48.5073C29.9151 47.7086 29.8211 46.8713 29.4665 46.1333C29.1111 45.3953 28.5151 44.7993 27.7778 44.444C27.0398 44.088 26.2025 43.994 25.4038 44.176C24.6051 44.358 23.8918 44.806 23.3811 45.4466C22.8698 46.0866 22.5918 46.882 22.5918 47.7013C22.5918 48.336 22.7585 48.9593 23.0758 49.5093C23.3925 50.0586 23.8491 50.5153 24.3985 50.8326C24.9478 51.15 25.5711 51.3173 26.2058 51.3173Z" fill="#1CB5B2"/>
<path d="M46.6858 51.3173C47.5051 51.318 48.3004 51.04 48.9411 50.5293C49.5818 50.0193 50.0304 49.306 50.2131 48.5073C50.3951 47.7086 50.3011 46.8713 49.9464 46.1333C49.5911 45.3953 48.9951 44.7993 48.2578 44.444C47.5198 44.088 46.6824 43.994 45.8838 44.176C45.0851 44.358 44.3718 44.806 43.8611 45.4466C43.3498 46.0866 43.0718 46.882 43.0718 47.7013C43.0711 48.336 43.2384 48.9593 43.5551 49.5093C43.8724 50.0586 44.3284 50.5153 44.8784 50.8326C45.4278 51.15 46.0511 51.3173 46.6858 51.3173Z" fill="#1CB5B2"/>
<path d="M40.9906 62.8326C40.8186 62.8399 40.6473 62.8026 40.4933 62.7239C40.34 62.6459 40.2093 62.5292 40.114 62.3852C39.69 61.7979 39.1293 61.3219 38.4813 60.9992C37.8326 60.6759 37.1153 60.5146 36.3913 60.5299C35.6826 60.5159 34.9806 60.6779 34.35 61.0012C33.7193 61.3252 33.1786 61.8006 32.7773 62.3852C32.6006 62.6106 32.3426 62.7579 32.0586 62.7952C31.7753 62.8326 31.488 62.7572 31.2586 62.5859C31.0293 62.4139 30.8766 62.1592 30.8333 61.8766C30.7893 61.5939 30.858 61.3046 31.0246 61.0719C31.6426 60.1932 32.4626 59.4759 33.416 58.9806C34.3686 58.4859 35.4273 58.2272 36.5013 58.2266C37.5726 58.2399 38.6266 58.5039 39.5773 58.9979C40.5286 59.4919 41.35 60.2026 41.9766 61.0719C42.144 61.3019 42.2166 61.5879 42.18 61.8699C42.1426 62.1526 41.9986 62.4099 41.7773 62.5886C41.556 62.7679 41.2746 62.8552 40.9906 62.8326Z" fill="#1CB5B2"/>
<path d="M28.8474 17.7338H28.4514C28.1367 17.6211 27.8714 17.4004 27.7027 17.1118C27.5334 16.8231 27.4714 16.4844 27.5274 16.1544L29.7721 8.88376C29.8621 8.55443 30.0787 8.27376 30.3741 8.1031C30.6694 7.93176 31.0207 7.88443 31.3514 7.9711C31.6814 8.05776 31.9647 8.2711 32.1387 8.56443C32.3127 8.85843 32.3634 9.2091 32.2807 9.54043L30.1681 16.8111C30.0827 17.0904 29.9067 17.3331 29.6667 17.5004C29.4274 17.6678 29.1387 17.7498 28.8474 17.7338Z" fill="#B5BCCE"/>
<path d="M23.3015 19.3246C23.0195 19.3012 22.7481 19.2032 22.5161 19.0412C22.2841 18.8792 22.0995 18.6579 21.9808 18.4012L18.5475 7.96191C18.4261 7.62991 18.4415 7.26258 18.5895 6.94191C18.7375 6.62058 19.0068 6.37124 19.3381 6.24791C19.6695 6.12458 20.0368 6.13791 20.3588 6.28391C20.6801 6.42991 20.9315 6.69791 21.0568 7.02858L24.4894 17.4772C24.6014 17.8099 24.5821 18.1732 24.4348 18.4912C24.2875 18.8099 24.0235 19.0599 23.6975 19.1899C23.6461 19.2406 23.5835 19.2792 23.5148 19.3026C23.4461 19.3259 23.3735 19.3332 23.3015 19.3246Z" fill="#B5BCCE"/>
<path d="M18.1508 21.8365C17.9768 21.8412 17.8041 21.8072 17.6441 21.7385C17.4841 21.6692 17.3414 21.5665 17.2254 21.4365L13.0001 17.3445C12.7648 17.0972 12.6348 16.7678 12.6388 16.4258C12.6421 16.0845 12.7794 15.7578 13.0201 15.5158C13.2614 15.2745 13.5874 15.1358 13.9294 15.1305C14.2708 15.1258 14.6008 15.2545 14.8488 15.4892L19.0741 19.5905C19.2414 19.7498 19.3621 19.9512 19.4241 20.1738C19.4854 20.3958 19.4854 20.6312 19.4241 20.8532C19.3621 21.0758 19.2414 21.2772 19.0741 21.4365C18.8254 21.6778 18.4968 21.8205 18.1508 21.8365Z" fill="#B5BCCE"/>
</svg>
