<svg width="100" height="104" viewBox="0 0 100 104" fill="none" xmlns="http://www.w3.org/2000/svg">
<g opacity="0.593899">
<path d="M0.000203434 65.3669L2.97524 64.7232L3.6142 67.7039L0.63916 68.3477L0.000203434 65.3669Z" fill="#1EB0E6"/>
</g>
<g opacity="0.593899">
<path d="M60.4034 24.1188L57.5135 23.1587L58.4675 20.2636L61.3574 21.2236L60.4034 24.1188Z" fill="#1EB0E6"/>
</g>
<g opacity="0.593899">
<path d="M58.3595 94.8698L55.4696 93.9097L56.4236 91.0145L59.3135 91.9746L58.3595 94.8698Z" fill="#1EB0E6"/>
</g>
<g opacity="0.593899">
<path d="M33.8775 80.1344L30.9877 79.1744L31.9417 76.2792L34.8315 77.2393L33.8775 80.1344Z" fill="#0675BB"/>
</g>
<g opacity="0.593899">
<path d="M73.9444 51.4469L71.0545 50.4869L72.0086 47.5917L74.8984 48.5518L73.9444 51.4469Z" fill="#0675BB"/>
</g>
<g opacity="0.593899">
<path d="M21.948 38.5534L24.923 37.9097L25.562 40.8905L22.5869 41.5342L21.948 38.5534Z" fill="#0675BB"/>
</g>
<g opacity="0.593899">
<path d="M15.0573 93.3833L21.0074 92.0962L22.2856 98.0576L16.3354 99.3447L15.0573 93.3833Z" fill="#27AE60"/>
</g>
<g opacity="0.593899">
<path d="M40.7948 7.70776L35.0157 5.78813L36.9235 -0.000693881L42.7026 1.91895L40.7948 7.70776Z" fill="#27AE60"/>
</g>
<g opacity="0.593899">
<path d="M91.622 69.6082L85.8429 67.6885L87.7507 61.8997L93.5298 63.8193L91.622 69.6082Z" fill="#27AE60"/>
</g>
<g opacity="0.593899">
<path d="M4.2847 19.144L6.54267 15.7819L5.06223 12.0146L8.94702 13.1245L12.0653 10.5445L12.2083 14.5926L15.616 16.7654L11.8195 18.1573L10.8073 22.0801L8.31799 18.8923L4.2847 19.144Z" fill="#F7CE15"/>
</g>
<g opacity="0.593899">
<path d="M82.0568 98.1326L78.0268 98.4312L75.9923 101.928L74.4583 98.1786L70.5086 97.3153L73.5905 94.6995L73.184 90.6692L76.6227 92.8019L80.3211 91.1744L79.3645 95.1082L82.0568 98.1326Z" fill="#F7CE15"/>
</g>
<g opacity="0.593899">
<path d="M88.0949 28.4527L84.9589 31.0109L85.2811 35.0477L81.8875 32.852L78.1555 34.4108L79.1942 30.4956L76.5655 27.4221L80.6011 27.1981L82.7084 23.7399L84.1639 27.5166L88.0949 28.4527Z" fill="#F7CE15"/>
</g>
<g opacity="0.722388">
<path d="M45.1061 10.2615L44.0794 13.1304L41.215 12.0964L42.2417 9.22754L45.1061 10.2615Z" fill="#1EB0E6"/>
</g>
<g opacity="0.722388">
<path d="M75.1632 73.7496L74.3497 70.8114L77.2823 69.9924L78.0957 72.9307L75.1632 73.7496Z" fill="#1EB0E6"/>
</g>
<g opacity="0.722388">
<path d="M13.2847 70.1851L12.4713 67.2469L15.4039 66.428L16.2173 69.3662L13.2847 70.1851Z" fill="#1EB0E6"/>
</g>
<g opacity="0.722388">
<path d="M22.9107 46.2808L22.0973 43.3426L25.0298 42.5237L25.8433 45.4619L22.9107 46.2808Z" fill="#0675BB"/>
</g>
<g opacity="0.722388">
<path d="M46.7164 81.8023L45.903 78.8641L48.8355 78.0452L49.6489 80.9834L46.7164 81.8023Z" fill="#0675BB"/>
</g>
<g opacity="0.722388">
<path d="M67.3456 33.6714L66.3182 36.5411L63.4536 35.5074L64.481 32.6377L67.3456 33.6714Z" fill="#0675BB"/>
</g>
<g opacity="0.722388">
<path d="M12.1548 31.8803L10.1003 37.6183L4.37179 35.5515L6.42627 29.8135L12.1548 31.8803Z" fill="#27AE60"/>
</g>
<g opacity="0.722388">
<path d="M94.1355 58.3923L92.5088 52.5175L98.3733 50.8801L100 56.7549L94.1355 58.3923Z" fill="#27AE60"/>
</g>
<g opacity="0.722388">
<path d="M41.8601 98.9235L40.2334 93.0487L46.0979 91.4113L47.7246 97.2861L41.8601 98.9235Z" fill="#27AE60"/>
</g>
<g opacity="0.722388">
<path d="M15.2352 89.051L12.6789 85.917L8.65118 86.2534L10.8383 82.8454L9.27864 79.1109L13.1866 80.1387L16.2504 77.4943L16.4786 81.5375L19.9318 83.6376L16.1648 85.1087L15.2352 89.051Z" fill="#F7CE15"/>
</g>
<g opacity="0.722388">
<path d="M85.6275 84.0655L82.0206 82.243L78.4762 84.1902L79.0929 80.186L76.1532 77.4092L80.1412 76.757L81.8688 73.0936L83.7168 76.6947L87.7242 77.2075L84.8784 80.0852L85.6275 84.0655Z" fill="#F7CE15"/>
</g>
<path d="M70.2966 54.4553C70.2966 66.8835 60.2497 76.9585 47.8563 76.9585C35.4629 76.9585 25.416 66.8835 25.416 54.4553C25.416 42.0272 35.4629 31.9521 47.8563 31.9521C60.2497 31.9521 70.2966 42.0272 70.2966 54.4553Z" fill="#27AD5F"/>
<path d="M65.8087 61.2998C65.8087 69.0158 59.5714 75.2705 51.877 75.2705C44.1828 75.2705 37.9453 69.0158 37.9453 61.2998C37.9453 53.584 44.1828 47.3291 51.877 47.3291C59.5714 47.3291 65.8087 53.584 65.8087 61.2998Z" fill="#25A257"/>
<path d="M27.1169 60.6248C27.0745 58.88 27.2949 57.1709 27.5489 55.4458C27.9551 52.6855 28.9404 49.9101 30.4248 47.5461C36.0833 38.5351 47.8798 35.3625 57.9349 36.588C59.4061 36.7673 60.8662 36.9747 62.3143 37.2473C58.4092 33.9441 53.3657 31.9521 47.8568 31.9521C35.4632 31.9521 25.4165 42.027 25.4165 54.4553C25.4165 57.7462 26.1226 60.8712 27.3888 63.6888C27.2536 62.6716 27.1418 61.6522 27.1169 60.6248Z" fill="#3ABB69"/>
<path d="M62.6166 42.6607C61.2548 41.6506 59.1125 41.8738 57.9146 43.0749L43.4733 57.5568C43.1004 57.9306 42.4961 57.9306 42.1232 57.5568L37.7404 53.1618C36.3493 51.767 34.0733 51.767 32.6824 53.1618C31.2914 54.5566 31.2914 56.839 32.6824 58.2336L40.2692 65.8419C41.6601 67.2368 43.9362 67.2368 45.3271 65.8419L63.03 48.0896C64.5472 46.568 64.4095 43.9904 62.6166 42.6607Z" fill="#EFF7F1"/>
<path d="M63.0699 43.4465C63.131 43.387 63.1914 43.3268 63.25 43.2638C63.068 43.0442 62.8586 42.8404 62.6164 42.6607C61.2545 41.6507 59.1123 41.8737 57.9148 43.0748L54.395 46.6042C56.9147 44.8927 59.995 43.135 63.0699 43.4465Z" fill="white"/>
<path d="M38.6725 54.0969L37.7405 53.1619C36.4623 51.8797 34.4407 51.7823 33.0415 52.8567C34.957 52.9175 36.9164 53.3075 38.6725 54.0969Z" fill="white"/>
<path d="M48.5966 61.5865C46.0576 62.7374 43.2778 63.7367 40.4608 63.2094C38.5371 62.8493 36.8794 61.7529 35.2021 60.7605L40.2694 65.8417C41.6603 67.2367 43.9363 67.2367 45.3272 65.8417L50.6074 60.5469C49.9555 60.9231 49.2874 61.2734 48.5966 61.5865Z" fill="#D2EAD9"/>
</svg>
