<svg width="41" height="40" viewBox="0 0 41 40" fill="none" xmlns="http://www.w3.org/2000/svg">
<rect x="0.333496" width="40" height="40" rx="20" fill="white"/>
<path d="M17.2419 15.242C16.8919 15.242 16.6169 14.9587 16.6169 14.617V12.292C16.6169 11.9503 16.8919 11.667 17.2419 11.667C17.5919 11.667 17.8669 11.9503 17.8669 12.292V14.6087C17.8669 14.9587 17.5919 15.242 17.2419 15.242Z" fill="#1CB5B2"/>
<path d="M23.425 15.242C23.075 15.242 22.8 14.9587 22.8 14.617V12.292C22.8 11.942 23.0834 11.667 23.425 11.667C23.775 11.667 24.05 11.9503 24.05 12.292V14.6087C24.05 14.9587 23.775 15.242 23.425 15.242Z" fill="#1CB5B2"/>
<path d="M26.6417 13.7503C26.0917 13.342 25.3001 13.7337 25.3001 14.4253V14.5087C25.3001 15.4837 24.6001 16.3837 23.6251 16.4837C22.5001 16.6003 21.5501 15.717 21.5501 14.617V13.7503C21.5501 13.292 21.1751 12.917 20.7167 12.917H19.9501C19.4917 12.917 19.1167 13.292 19.1167 13.7503V14.617C19.1167 15.2753 18.7751 15.8587 18.2584 16.1837C18.1834 16.2337 18.1001 16.2753 18.0167 16.317C17.9417 16.3587 17.8584 16.392 17.7667 16.417C17.6667 16.4503 17.5584 16.4753 17.4417 16.4837C17.3084 16.5003 17.1751 16.5003 17.0417 16.4837C16.9251 16.4753 16.8167 16.4503 16.7167 16.417C16.6334 16.392 16.5501 16.3587 16.4667 16.317C16.3834 16.2753 16.3001 16.2337 16.2251 16.1837C15.7001 15.817 15.3667 15.1837 15.3667 14.5087V14.4253C15.3667 13.7837 14.6834 13.4003 14.1417 13.6753C14.1334 13.6837 14.1251 13.6837 14.1167 13.692C14.0834 13.7087 14.0584 13.7253 14.0251 13.7503C14.0001 13.7753 13.9667 13.792 13.9417 13.817C13.7084 14.0003 13.5001 14.2087 13.3251 14.4337C13.2334 14.5337 13.1584 14.642 13.0917 14.7503C13.0834 14.7587 13.0751 14.767 13.0667 14.7837C12.9917 14.892 12.9251 15.017 12.8667 15.1337C12.8501 15.1503 12.8417 15.1587 12.8417 15.1753C12.7917 15.2753 12.7417 15.3753 12.7084 15.4837C12.6834 15.5253 12.6751 15.5587 12.6584 15.6003C12.6084 15.7253 12.5751 15.8503 12.5417 15.9753C12.5084 16.092 12.4834 16.217 12.4667 16.342C12.4501 16.4337 12.4417 16.5253 12.4334 16.6253C12.4251 16.742 12.4167 16.8587 12.4167 16.9753V24.2753C12.4167 26.517 14.2334 28.3337 16.4751 28.3337H24.1917C26.4334 28.3337 28.2501 26.517 28.2501 24.2753V16.9753C28.2501 15.6503 27.6167 14.492 26.6417 13.7503ZM20.3334 23.542H18.9251V25.0003C18.9251 25.342 18.6417 25.6253 18.3001 25.6253C17.9501 25.6253 17.6751 25.342 17.6751 25.0003V23.542H16.1667C15.8251 23.542 15.5417 23.2587 15.5417 22.917C15.5417 22.5753 15.8251 22.292 16.1667 22.292H17.6751V20.8337C17.6751 20.492 17.9501 20.2087 18.3001 20.2087C18.6417 20.2087 18.9251 20.492 18.9251 20.8337V22.292H20.3334C20.6751 22.292 20.9584 22.5753 20.9584 22.917C20.9584 23.2587 20.6751 23.542 20.3334 23.542Z" fill="#1CB5B2"/>
</svg>
