<svg width="41" height="40" viewBox="0 0 41 40" fill="none" xmlns="http://www.w3.org/2000/svg">
<rect x="0.666748" width="40" height="40" rx="20" fill="white"/>
<path d="M20.6667 13.875C16.6833 13.875 13.4417 17.1167 13.4417 21.1C13.4417 25.0833 16.6833 28.3333 20.6667 28.3333C24.65 28.3333 27.8917 25.0917 27.8917 21.1083C27.8917 17.125 24.65 13.875 20.6667 13.875ZM21.2917 20.8333C21.2917 21.175 21.0083 21.4583 20.6667 21.4583C20.325 21.4583 20.0417 21.175 20.0417 20.8333V16.6667C20.0417 16.325 20.325 16.0417 20.6667 16.0417C21.0083 16.0417 21.2917 16.325 21.2917 16.6667V20.8333Z" fill="#1CB5B2"/>
<path d="M23.0751 12.8753H18.2584C17.9251 12.8753 17.6584 12.6087 17.6584 12.2753C17.6584 11.942 17.9251 11.667 18.2584 11.667H23.0751C23.4084 11.667 23.6751 11.9337 23.6751 12.267C23.6751 12.6003 23.4084 12.8753 23.0751 12.8753Z" fill="#1CB5B2"/>
</svg>
