<svg width="40" height="40" viewBox="0 0 40 40" fill="none" xmlns="http://www.w3.org/2000/svg">
<rect width="40" height="40" rx="20" fill="white"/>
<path d="M27.6249 15.1413C27.2832 14.958 26.5666 14.7663 25.5916 15.4497L24.3666 16.3163C24.2749 13.7247 23.1499 12.708 20.4166 12.708H15.4166C12.5666 12.708 11.4583 13.8163 11.4583 16.6663V23.333C11.4583 25.2497 12.4999 27.2913 15.4166 27.2913H20.4166C23.1499 27.2913 24.2749 26.2747 24.3666 23.683L25.5916 24.5497C26.1082 24.9163 26.5582 25.033 26.9166 25.033C27.2249 25.033 27.4666 24.9413 27.6249 24.858C27.9666 24.683 28.5416 24.208 28.5416 23.0163V16.983C28.5416 15.7913 27.9666 15.3163 27.6249 15.1413ZM19.1666 19.483C18.3083 19.483 17.5999 18.783 17.5999 17.9163C17.5999 17.0497 18.3083 16.3497 19.1666 16.3497C20.0249 16.3497 20.7333 17.0497 20.7333 17.9163C20.7333 18.783 20.0249 19.483 19.1666 19.483Z" fill="#1CB5B2"/>
</svg>
