<svg width="14" height="14" viewBox="0 0 14 14" fill="none" xmlns="http://www.w3.org/2000/svg">
<path d="M7 1.16699C5.47166 1.16699 4.22916 2.40949 4.22916 3.93783C4.22916 5.43699 5.40166 6.65033 6.93 6.70283C6.97666 6.69699 7.02333 6.69699 7.05833 6.70283C7.07 6.70283 7.07583 6.70283 7.0875 6.70283C7.09333 6.70283 7.09333 6.70283 7.09916 6.70283C8.5925 6.65033 9.765 5.43699 9.77083 3.93783C9.77083 2.40949 8.52833 1.16699 7 1.16699Z" fill="#1CB5B2"/>
<path d="M9.96333 8.25418C8.33583 7.16918 5.68167 7.16918 4.0425 8.25418C3.30167 8.75001 2.89333 9.42085 2.89333 10.1383C2.89333 10.8558 3.30167 11.5208 4.03667 12.0108C4.85333 12.5592 5.92667 12.8333 7 12.8333C8.07333 12.8333 9.14667 12.5592 9.96333 12.0108C10.6983 11.515 11.1067 10.85 11.1067 10.1267C11.1008 9.40918 10.6983 8.74418 9.96333 8.25418Z" fill="#1CB5B2"/>
</svg>
