<svg width="20" height="20" viewBox="0 0 20 20" fill="none" xmlns="http://www.w3.org/2000/svg">
<path d="M17.6252 5.14134C17.2835 4.95801 16.5668 4.76634 15.5918 5.44967L14.3668 6.31634C14.2752 3.72467 13.1502 2.70801 10.4168 2.70801H5.41683C2.56683 2.70801 1.4585 3.81634 1.4585 6.66634V13.333C1.4585 15.2497 2.50016 17.2913 5.41683 17.2913H10.4168C13.1502 17.2913 14.2752 16.2747 14.3668 13.683L15.5918 14.5497C16.1085 14.9163 16.5585 15.033 16.9168 15.033C17.2252 15.033 17.4668 14.9413 17.6252 14.858C17.9668 14.683 18.5418 14.208 18.5418 13.0163V6.98301C18.5418 5.79134 17.9668 5.31634 17.6252 5.14134ZM9.16683 9.48301C8.3085 9.48301 7.60016 8.78301 7.60016 7.91634C7.60016 7.04967 8.3085 6.34967 9.16683 6.34967C10.0252 6.34967 10.7335 7.04967 10.7335 7.91634C10.7335 8.78301 10.0252 9.48301 9.16683 9.48301Z" fill="#112B91"/>
</svg>
